<svg xmlns="http://www.w3.org/2000/svg" viewBox="0 0 100 80" fill="none" stroke="#002333"><path d="M62.4 72.2v-18l2.7 16s.9 4.7 5 3.9c4.1-.8 3.1-5.2 3.1-5.2l-5.6-30.1c-.8-2.5-3.1-4.2-5.7-4.2h-2.3c-12.9 0-19.1-6.6-19.1-12.2 0-5.2 4.6-9.4 9.9-8.7 4.4.6 7.6 4.2 7.6 8.7 0 6.8-7.8 12.2-19 12.2h-2c-2.8 0-5.2 1.9-5.9 4.6l-4.6 30.3c-.3 2.2 1.4 4.2 3.6 4.6h-.2c2.2.3 4.6-1.2 5-3.4l2.5-16.6v18s4.2 4.2 12.3 4.2c8.1 0 12.7-4.1 12.7-4.1z" stroke-width="2" stroke-miterlimit="10" stroke-linecap="round" stroke-linejoin="round"/><path d="M42.9 35.1s-.4 7.3 6.4 7.3c6.8 0 6.9-7.3 6.9-7.3M40.9 19.5s5 .4 8.2-2.8c3 3 7.4 2.9 7.4 2.9" stroke-width="2" stroke-miterlimit="10" stroke-linecap="round" stroke-linejoin="round"/><path d="M49.2 64c-4.3-.3-6.7-2.1-7.2-4.5-.1-.5.2-.9.7-.9h4c.3 0 .6.2.7.5.3.8 1.1 1.2 2.1 1.2.8 0 1.7-.5 1.7-1.3s-.4-1.2-1.4-1.6l-3.3-.8c-2.7-.7-4.2-2.3-4.2-4.9 0-3.1 2.8-5.2 7.1-5.2l1.4.1c3.6.3 5.8 1.9 6.1 4.6 0 .3-.2.5-.5.5h-4.6c-.2 0-.4-.1-.5-.4-.2-.9-.9-1.3-1.9-1.2-.7.1-1.3.5-1.3 1.3 0 .7.4 1.2 1.5 1.5l3.2.9c2.6.7 4.2 2.3 4.2 4.8 0 3.1-2.5 5.3-6.4 5.5h-1.4V64z" stroke-width="2" stroke-miterlimit="10" stroke-linecap="round"/><path d="M29.9 46.3l-9-4 4.9-9.3-5.1-9.2 9.4-4.6 1.2-10.4 10.4 1.8 7.1-7.8 7.3 7.6 10.3-2.1 1.5 10.4 9.6 4.4-5 9.3 5.2 9.1-8.8 4.5" stroke-width="2" stroke-miterlimit="10" stroke-linecap="round" stroke-linejoin="round"/></svg>