<svg xmlns="http://www.w3.org/2000/svg" viewBox="0 0 100 80" fill="none" stroke="#002333"><path d="M50.4 73.2l1.8-6.5c.8-2.5 3.1-4.1 5.7-4.1 11.2 0 19-4.8 19-12.2 0-5.3-4.7-9.5-10.2-8.7-4.3.7-7.5 4.5-7.4 8.8.1 6.9 8 12 19.1 12h3.2c2.7 0 5.1 1.8 5.8 4.5l1.4 6.2M11.2 72l.9-4.8c.6-2.7 3.1-4.6 5.9-4.6h2c11.2 0 19-5.3 19-12.2 0-4.5-3.2-8.1-7.6-8.7-5.4-.7-9.9 3.5-9.9 8.7 0 5.5 6.2 12.2 19.1 12.2h2.3c2.6 0 4.9 1.7 5.7 4.2l1.8 6.4" stroke-width="2" stroke-miterlimit="10" stroke-linecap="round" stroke-linejoin="round"/><path d="M39.7 53.4c10.5 0 17.8-5 17.8-11.4 0-4.2-3-7.6-7.1-8.1-5-.7-9.3 3.2-9.3 8.1 0 5.2 5.8 11.4 17.8 11.4m-32.8-9.6s4 8.5 13.1 8.3m21.3-3.8s5 .4 8.2-2.8c3 3 7.4 2.9 7.4 2.9m-53.7 2.7s4.8-1 5.6-4.2" stroke-width="2" stroke-miterlimit="10" stroke-linecap="round" stroke-linejoin="round"/><path d="M55 36.2s-3.2 2.4-7.4 3.7c-4.2 1.3-6.1 1.2-6.1 1.2" stroke-width="2" stroke-miterlimit="10" stroke-linecap="round" stroke-linejoin="round"/><path d="M27.2 42.2c0-12.1 9.8-21.9 21.9-21.9 12.1 0 21.9 9.8 21.9 21.9M49 6.3V13m24.1.9l-4.8 4.7m-43.1-4.7l4.7 4.7M13.8 35.2h6.7m57.3 0h6.8" stroke-width="2" stroke-miterlimit="10" stroke-linecap="round" stroke-linejoin="round"/></svg>