<svg xmlns="http://www.w3.org/2000/svg" viewBox="0 0 100 80" fill="none" stroke="#002333"><path d="M73.4 18.2V9.5c0-1.1-.8-2-1.8-2H29.7c-1 0-1.8.9-1.8 2v24c0 1.1.8 2 1.8 2h41.9c1 0 1.7-.9 1.7-1.9V18.2h.1z" stroke-width="2" stroke-miterlimit="10" stroke-linecap="round"/><path d="M41.8 27.3h-8.5c-.9 0-1.5-.7-1.5-1.5V13.1c0-.9.7-1.5 1.5-1.5h8.5c.9 0 1.5.7 1.5 1.5v12.6c0 .9-.7 1.6-1.5 1.6zm24 8.2l-2.1-8.3c-.4-1.2-1.5-2-2.8-2h-1.1c-5.5 0-9.4-3.2-9.4-6 0-2.4 1.9-4.3 4.3-4.3s4.3 1.9 4.3 4.3c0 3.4-3.8 6-9.3 6h-1c-1.4 0-2.6.9-2.9 2.3l-1.2 8.1m5.3-4.3l-.8 4.2m11.1-4.2l1.1 4.2" stroke-width="2" stroke-miterlimit="10" stroke-linecap="round"/><path d="M70.23 70.91h12v-19h-12v19zM69.9 54.6h-8.3c-3.1 0-6.3 3.7-7.8 3.7h-6.5c-4.3 0-4.3 5.8-.6 5.8h11.8" stroke-width="2" stroke-miterlimit="10" stroke-linecap="round" stroke-linejoin="round"/><path d="M69.7 68.6c-2.8 0-14.2 5.8-17.7 5.8S30.6 64.1 28.8 63.2c-3.7-1.9 3.1-4.1 6.2-3 2.8 1 10.5 3.7 10.5 3.7M57 50.4a5.5 5.5 0 100-11 5.5 5.5 0 000 11zm-16.5 5.2a5.5 5.5 0 100-11 5.5 5.5 0 000 11zm-2-6.9l4.1 2.8m13.6-4.2l1.5-4.8" stroke-width="2" stroke-miterlimit="10" stroke-linecap="round" stroke-linejoin="round"/></svg>